<?xml version="1.0" encoding="UTF-8"?>
<svg xmlns="http://www.w3.org/2000/svg" xmlns:xlink="http://www.w3.org/1999/xlink" width="100pt" height="100pt" viewBox="0 0 100 100" version="1.1">
<g id="surface9657074">
<path style=" stroke:none;fill-rule:nonzero;fill:rgb(28.627451%,56.078431%,81.960784%);fill-opacity:1;" d="M 50 100 C 22.386719 100 0 77.613281 0 50 C 0 22.386719 22.386719 0 50 0 C 77.613281 0 100 22.386719 100 50 C 100 77.613281 77.613281 100 50 100 Z M 50 100 "/>
<path style=" stroke:none;fill-rule:nonzero;fill:rgb(100%,100%,100%);fill-opacity:1;" d="M 44.585938 19.085938 C 31.429688 19.085938 20.789062 29.730469 20.789062 42.886719 C 20.789062 56.046875 31.429688 66.6875 44.585938 66.6875 C 49.285156 66.6875 53.632812 65.308594 57.320312 62.96875 L 74.511719 80.164062 L 80.460938 74.210938 L 63.488281 57.28125 C 66.539062 53.277344 68.386719 48.316406 68.386719 42.886719 C 68.386719 29.730469 57.746094 19.085938 44.585938 19.085938 Z M 44.585938 24.6875 C 54.667969 24.6875 62.789062 32.808594 62.789062 42.886719 C 62.789062 52.964844 54.667969 61.085938 44.585938 61.085938 C 34.507812 61.085938 26.386719 52.964844 26.386719 42.886719 C 26.386719 32.808594 34.507812 24.6875 44.585938 24.6875 Z M 44.585938 24.6875 "/>
</g>
</svg>
