<?xml version="1.0" encoding="UTF-8" standalone="no"?>
<svg
   xmlns:dc="http://purl.org/dc/elements/1.1/"
   xmlns:cc="http://creativecommons.org/ns#"
   xmlns:rdf="http://www.w3.org/1999/02/22-rdf-syntax-ns#"
   xmlns:svg="http://www.w3.org/2000/svg"
   xmlns="http://www.w3.org/2000/svg"
   xmlns:sodipodi="http://sodipodi.sourceforge.net/DTD/sodipodi-0.dtd"
   xmlns:inkscape="http://www.inkscape.org/namespaces/inkscape"
   id="Capa_1"
   enable-background="new 0 0 479.063 479.063"
   height="512"
   viewBox="0 0 479.063 479.063"
   width="512"
   version="1.1"
   sodipodi:docname="quickMessages.svg"
   inkscape:version="0.92.3 (2405546, 2018-03-11)">
  <metadata
     id="metadata9">
    <rdf:RDF>
      <cc:Work
         rdf:about="">
        <dc:format>image/svg+xml</dc:format>
        <dc:type
           rdf:resource="http://purl.org/dc/dcmitype/StillImage" />
      </cc:Work>
    </rdf:RDF>
  </metadata>
  <defs
     id="defs7" />
  <sodipodi:namedview
     pagecolor="#ffffff"
     bordercolor="#666666"
     borderopacity="1"
     objecttolerance="10"
     gridtolerance="10"
     guidetolerance="10"
     inkscape:pageopacity="0"
     inkscape:pageshadow="2"
     inkscape:window-width="682"
     inkscape:window-height="489"
     id="namedview5"
     showgrid="false"
     inkscape:zoom="0.4609375"
     inkscape:cx="256"
     inkscape:cy="256"
     inkscape:window-x="0"
     inkscape:window-y="0"
     inkscape:window-maximized="0"
     inkscape:current-layer="Capa_1" />
  <path
     d="m475.287 94.855c-2.836-3.202-6.915-5.029-11.199-5.029h-386.925c-7.573 0-13.962 5.672-14.868 13.187l-2.412 20.155v-3.401h-59.883v29.941h56.706l-7.167 59.882h-49.539v29.941h45.955l-7.167 59.882h-38.788v29.941h35.206l-5.163 43.128c-.512 4.254.833 8.523 3.67 11.725 2.836 3.202 6.915 5.029 11.199 5.029h386.926c7.573 0 13.962-5.672 14.868-13.187l32.251-269.47c.511-4.253-.834-8.522-3.67-11.724zm-49.444 24.912-171.781 144.34-143.154-144.34zm-7.295 239.529h-356.763l26.332-219.995 154.397 155.683c2.909 2.939 6.769 4.43 10.629 4.43 3.421 0 6.842-1.155 9.634-3.509l181.628-152.618z"
     id="path2"
     style="fill:#ffffff" />
</svg>
