<?xml version="1.0" encoding="UTF-8" standalone="no"?>
<svg
   xmlns:dc="http://purl.org/dc/elements/1.1/"
   xmlns:cc="http://creativecommons.org/ns#"
   xmlns:rdf="http://www.w3.org/1999/02/22-rdf-syntax-ns#"
   xmlns:svg="http://www.w3.org/2000/svg"
   xmlns="http://www.w3.org/2000/svg"
   xmlns:sodipodi="http://sodipodi.sourceforge.net/DTD/sodipodi-0.dtd"
   xmlns:inkscape="http://www.inkscape.org/namespaces/inkscape"
   viewBox="0 0 60 60"
   version="1.1"
   x="0px"
   y="0px"
   id="svg16"
   sodipodi:docname="sendIcon.svg"
   width="60"
   height="60"
   inkscape:version="0.92.3 (2405546, 2018-03-11)">
  <metadata
     id="metadata22">
    <rdf:RDF>
      <cc:Work
         rdf:about="">
        <dc:format>image/svg+xml</dc:format>
        <dc:type
           rdf:resource="http://purl.org/dc/dcmitype/StillImage" />
        <dc:title>Upload s18.2</dc:title>
      </cc:Work>
    </rdf:RDF>
  </metadata>
  <defs
     id="defs20" />
  <sodipodi:namedview
     pagecolor="#ffffff"
     bordercolor="#666666"
     borderopacity="1"
     objecttolerance="10"
     gridtolerance="10"
     guidetolerance="10"
     inkscape:pageopacity="0"
     inkscape:pageshadow="2"
     inkscape:window-width="1920"
     inkscape:window-height="1017"
     id="namedview18"
     showgrid="false"
     fit-margin-top="0"
     fit-margin-left="0"
     fit-margin-right="0"
     fit-margin-bottom="0"
     inkscape:zoom="5.3400704"
     inkscape:cx="77.422685"
     inkscape:cy="67.712319"
     inkscape:window-x="2728"
     inkscape:window-y="-8"
     inkscape:window-maximized="1"
     inkscape:current-layer="svg16" />
  <title
     id="title2">Upload s18.2</title>
  <desc
     id="desc4">Created with Sketch.</desc>
  <g
     id="g10"
     style="fill:none;fill-rule:evenodd;stroke:none;stroke-width:1"
     transform="translate(-20,-20)">
    <g
       id="g8"
       style="fill:#000000" />
  </g>
  <rect
     style="fill:#ffffff;fill-opacity:1;stroke:#ffffff;stroke-width:9.29271126;stroke-linejoin:round;stroke-miterlimit:4;stroke-dasharray:none;stroke-opacity:1"
     id="rect855"
     width="31.51483"
     height="38.135593"
     x="13.10911"
     y="11.403602" />
  <path
     d="m 30.058262,60.074152 c -16.568543,0 -30.00000275,-13.431457 -30.00000275,-30 0,-16.568543 13.43145975,-29.99999987 30.00000275,-29.99999987 16.568543,0 30,13.43145687 30,29.99999987 0,16.568543 -13.431457,30 -30,30 z m 0.683267,-44.707759 c -0.387318,-0.389721 -1.014525,-0.389588 -1.400611,0 L 17.368985,27.446906 c -0.941999,0.942938 0.470501,2.356845 1.4125,1.413907 l 9.5714,-9.584643 c 0.390155,-0.390694 0.706438,-0.254268 0.706438,0.284156 v 24.124506 c 0,0.547629 0.443394,0.991571 0.998939,0.991571 0.551699,0 0.998939,-0.453148 0.998939,-0.991571 V 19.560326 c 0,-0.54763 0.318866,-0.672264 0.706438,-0.284156 l 9.5714,9.584643 c 0.941999,0.942938 2.354499,-0.470969 1.4125,-1.413907 z"
     id="path6"
     inkscape:connector-curvature="0"
     style="fill:#53d769;fill-opacity:1;fill-rule:evenodd;stroke:none;stroke-width:1" />
</svg>
